# xmcd CD database file
#
# Track frame offsets:
#	150
#	14340
#	31857
#	45772
#	60032
#	79845
#	95557
#	108605
#	127920
#	144642
#	162810
#	176807
#
# Disc length: 2504 seconds
#
# Revision: 0
# Processed by: cddbd v1.5.1PL0 Copyright (c) Steve Scherf et al.
# Submitted via: CDex 1.51
#
DISCID=8c09c60c
DTITLE=少年ホームランズ - 少年ホームランズ１２
DYEAR=1979
DGENRE=Rock
TTITLE0=焼ソバ老人
TTITLE1=俺はぺーぺー
TTITLE2=私ヤヨ
TTITLE3=ブンチャカ文化人
TTITLE4=スウィート・スウィート７０’Ｓ
TTITLE5=昆虫軍
TTITLE6=ファンキーばあさん
TTITLE7=ジャングル都市
TTITLE8=ふにゃふにゃサイボーグ
TTITLE9=メロウ野郎in津田沼PARCO
TTITLE10=アンドロイドな女
TTITLE11=電車でＧＯ
EXTD=YEAR: 1979
EXTT0=
EXTT1=
EXTT2=
EXTT3=
EXTT4=
EXTT5=
EXTT6=
EXTT7=
EXTT8=
EXTT9=
EXTT10=
EXTT11=
PLAYORDER=
